<?xml version="1.0" standalone="no"?><!DOCTYPE svg PUBLIC "-//W3C//DTD SVG 1.1//EN" "http://www.w3.org/Graphics/SVG/1.1/DTD/svg11.dtd"><svg t="1540967406511" class="icon" style="" viewBox="0 0 1808 1024" version="1.1" xmlns="http://www.w3.org/2000/svg" p-id="6529" xmlns:xlink="http://www.w3.org/1999/xlink" width="353.125" height="200"><defs><style type="text/css"></style></defs><path d="M336.75590761 62.07534864h350.70740684a66.97010127 66.97010127 0 0 1 65.62057764 90.41807109L590.46631631 871.33957666A114.48457295 114.48457295 0 0 1 482.56067041 961.75764776H131.90949424a66.97010127 66.97010127 0 0 1-65.62057763-90.4180711l163.06741669-718.84615693A116.90246865 116.90246865 0 0 1 336.75590761 62.07534864z" fill="#E03333" p-id="6530"></path><path d="M669.97573965 62.07534864h433.81555928c51.7879626 0 27.72146075 41.55407578 17.4875748 90.41807109l-177.06872285 718.84615693c-13.83261503 51.7879626-7.30991865 90.41807109-62.69661036 90.4180711h-430.1605995a70.34390948 70.34390948 0 0 1-73.09918652-90.4180711L555.49116758 152.49341973A122.63794365 122.63794365 0 0 1 669.97573965 62.07534864z" fill="#004889" p-id="6531"></path><path d="M1100.81110097 62.07534864h350.70740684a66.97010127 66.97010127 0 0 1 65.73303808 90.41807109l-163.06741757 718.84615693A114.48457295 114.48457295 0 0 1 1245.88487217 961.75764776h-350.70740684a66.97010127 66.97010127 0 0 1-65.62057763-90.4180711l163.0674167-718.84615693A117.7459207 117.7459207 0 0 1 1100.81110097 62.07534864z" fill="#008089" p-id="6532"></path><path d="M1027.93683448 718.22489521h34.9751496l10.23388594-31.37641963h-34.80645849z m27.72146073-86.76311133l-10.23388593 37.8991169a66.9138706 66.9138706 0 0 1 21.14253457-7.30991865 65.50811719 65.50811719 0 0 0 17.4875748-3.65495976l7.30991866-24.06650099-35.7061421-2.92396728z m16.86904366-55.38669169l-10.23388594 34.97514961a66.9138706 66.9138706 0 0 1 21.14253369-7.30991865 46.0524876 46.0524876 0 0 1 17.48757481-3.65495977l7.30991865-24.06650098z m76.52922539 0l-44.98411465 142.14980302h10.23388594l-10.23388594 27.72146162h-10.23388682l-3.65495888 10.23388594h-41.55407667l3.65495977-10.23388594h-87.04426289l10.23388682-27.72146162h10.23388594l44.98411465-142.14980302 10.23388681-27.72146075h44.98411465l-3.65495976 13.83261504a70.96244151 70.96244151 0 0 1 24.06650185-10.23388593 418.57718994 418.57718994 0 0 1 65.62057763-3.65495889l-10.23388593 27.72146074z" fill="#FFFFFF" p-id="6533"></path><path d="M1173.74159727 548.35363145h44.98411552v16.86904277c0 3.65495977 3.65495977 3.65495977 7.30991866 3.65495976h10.23388593l-10.23388593 27.72146075h-24.06650186c-21.14253369 0-31.3764205-7.30991865-27.72146074-17.48757481l-0.73099161-30.64542802z m-13.83261504 128.31718798h-44.98411553l7.30991953-24.06650185h51.78796172l7.30991866-21.1425337h-48.86399444l10.23388593-27.72146073h138.55107393l-10.23388594 27.72146073h-44.98411464l-10.23388682 21.1425337h44.98411553l-7.30991865 24.06650185h-48.86399532l-10.23388593 10.23388594h21.14253369l3.65495977 31.37642051v7.30991865h17.4875748l-7.30991865 31.3764205h-24.06650186c-3.65495977 0-7.30991865-3.65495977-10.23388593-3.65495976s-7.30991865-3.65495977-7.30991866-10.23388594l-3.65495977-31.3764205-24.06650097 31.3764205a39.36110097 39.36110097 0 0 1-34.97514961 17.48757481h-31.37642051l7.30991866-27.72146162h13.83261591a11.24602911 11.24602911 0 0 0 10.23388594-3.65495889c3.65495977 0 3.65495977-3.65495977 7.30991865-7.30991865z m-482.67955371-66.46402969h118.08330205l-10.90864864 27.72146075h-44.98411464l-7.30991865 21.14253369h48.86399531l-10.45880684 27.83392119h-48.86399531l-10.23388594 38.63010849c0 3.65495977 10.23388594 3.65495977 17.48757481 3.65495977l24.06650097-3.65495977-10.23388594 31.37642052h-69.16307695c-3.65495977 0-7.30991865-3.65495977-10.23388594-7.30991865a12.70801231 12.70801231 0 0 1-3.65495888-10.23388594l13.83261503-48.86399531h-21.0863039l10.23388593-27.72146075h24.06650187l7.30991865-21.1425337h-27.72146075z m128.31718799-48.1330037l-10.23388594 27.72146162h-65.62057852l-7.30991865 7.30991865c-3.65495977 3.65495977-3.65495977 0-7.30991866 3.65495889a28.73360303 28.73360303 0 0 1-21.14253368 7.30991865h-21.14253369l10.23388593-27.72146075h13.83261504c3.65495977 0 3.65495977-3.65495977 7.30991866-7.30991865l10.12142636-21.03007412h48.86399443l-7.30991865 10.23388682z m41.55407578 44.98411552a89.96823018 89.96823018 0 0 1 34.97514961-13.83261591h37.89911689l3.65495977-13.83261505h-65.62057852l-10.90864775 27.72146075z m65.62057763 14.39491641H847.10069229l-3.65495889 13.83261591h69.27553652z m-86.76311133-73.09918652h41.55407578l-7.30991865 21.14253368a212.2125627 212.2125627 0 0 1 21.14253457-13.83261503 271.59159463 271.59159463 0 0 1 27.72146075-7.30991866h65.62057763l-21.14253369 73.09918653a100.87687793 100.87687793 0 0 1-10.23388681 24.06650185c-3.65495977 3.65495977-3.65495977 7.30991865-10.23388594 10.23388594a25.41602461 25.41602461 0 0 1-13.83261504 3.65495977h-83.10815245l-17.4875748 55.38669169c0 7.30991865-3.65495977 7.30991865 0 10.23388594a12.70801231 12.70801231 0 0 0 7.30991865 3.65495889l27.72146075-3.65495889-17.48757481 31.37641963h-51.7879626a20.01793096 20.01793096 0 0 1-13.88884482-3.93610956c-3.65495977-3.65495977-7.30991865-7.30991865-7.30991865-10.23388594a25.41602461 25.41602461 0 0 1 3.65495888-13.83261593z" fill="#FFFFFF" p-id="6534"></path><path d="M955.00633818 655.58451553l-3.65495888 17.4875748a17.43134414 17.43134414 0 0 1-7.30991865 13.83261504 28.73360303 28.73360303 0 0 1-21.14253458 7.30991865h-24.06650097v21.14253457c0 7.30991865 0 7.30991865 3.65495888 7.30991865h31.37642052l-7.30991866 34.97514873h-24.06650186a76.02315469 76.02315469 0 0 1-34.97514961-3.65495888c-7.30991865-3.65495977-7.30991865-7.30991865-7.30991865-13.83261504v-84.34521562h41.55407667v17.48757392h17.4875748l3.65495888-3.65495889 3.65495977-13.83261503zM402.37648614 304.87710869c0 7.30991865-27.72146075 128.31718799-27.72146163 128.31718799a92.72350722 92.72350722 0 0 1-24.06650097 55.3866917 38.51764805 38.51764805 0 0 1-27.72146075 10.23388594c-17.48757481 0-27.72146075-7.30991865-27.72146074-24.06650098v-7.53483956l3.65495889-34.9751496 31.3764205-124.66222822a240.88993594 240.88993594 0 0 1-59.04165146-3.65495977v7.30991865l-27.72146074 124.66222911-3.65495888 10.23388593-3.65495977 34.97514961a78.21612949 78.21612949 0 0 0 7.30991865 27.72146074 79.45319268 79.45319268 0 0 0 69.2755374 27.72146074 132.81559981 132.81559981 0 0 0 65.62057764-17.4875748 104.92544795 104.92544795 0 0 0 41.55407578-69.27553653l3.65495976-13.83261591s27.72146075-114.48457295 31.37642051-131.97214688c0 0.89968271-52.5189542 0.89968271-52.5189542 0.89968184z m153.11468144 232.567875h-44.98411553c3.65495977-7.30991865 3.65495977-17.48757481 7.30991865-24.06650185l3.65495977-10.23388594a343.67863886 343.67863886 0 0 0 7.30991865-44.98411465c0-3.65495977 0-13.83261503-10.23388682-13.83261592-3.65495977 0-10.23388594 3.65495977-13.83261503 3.65495977-3.65495977 10.23388594-7.30991865 37.8991169-10.23388594 48.86399443-3.65495977 27.72146075-7.30991865 27.72146075-7.30991865 41.55407666H438.30754737c3.65495977-13.83261503 7.30991865-31.3764205 10.23388681-48.86399531a710.35540576 710.35540576 0 0 0 13.83261504-80.18418515c21.14253369-3.65495977 27.72146075-3.65495977 48.86399443-7.30991865l3.65495977 3.65495976-4.38595137 13.83261504c3.65495977-3.65495977 7.30991865-3.65495977 10.23388594-7.30991865a54.26208896 54.26208896 0 0 1 31.3764205-7.30991865 22.88566846 22.88566846 0 0 1 24.06650186 13.83261591 139.78813711 139.78813711 0 0 1-3.65495977 51.78796172l-7.30991865 7.30991865a250.33659961 250.33659961 0 0 1-9.50289433 59.77264307z m73.09918652-27.72146074h-48.86399531a174.3134458 174.3134458 0 0 1 7.30991865-21.14253457 77.93497881 77.93497881 0 0 0 3.37380909-21.36745459c3.65495977-13.83261503 3.65495977-24.06650185 7.30991865-34.97514961 0-7.30991865 3.65495977-17.48757481 3.65495888-24.06650098 10.23388594 0 17.48757481-3.65495977 24.06650186-3.65495976s13.83261503-3.65495977 24.06650185-3.65495889l-7.30991865 27.72146074c-3.65495977 10.23388594-3.65495977 17.48757481-7.30991865 27.72146075-3.65495977 21.14253369-7.30991865 27.72146075-7.30991865 31.3764205 4.49841182 8.20960137 4.49841182 8.20960137 0.84345204 22.04221641z m118.08330205-69.2755374a70.79375127 70.79375127 0 0 1-10.23388681 31.37642051 17.37511435 17.37511435 0 0 1-13.83261504 10.23388594s-10.23388594 0-10.23388594-13.83261505a43.35344122 43.35344122 0 0 1 3.65495888-21.14253456c3.65495977-21.14253369 10.23388594-41.55407578 24.06650187-41.55407578s12.98916299 13.83261503 6.41023592 34.97514872z m48.86399444 3.65495976a68.93815605 68.93815605 0 0 0-3.65495889-51.7879626 53.2499458 53.2499458 0 0 0-44.98411553-17.4875748 72.6493456 72.6493456 0 0 0-55.38669169 21.1425337 88.61870654 88.61870654 0 0 0-24.06650099 48.86399531c-3.65495977 17.48757481-10.23388594 51.7879626 21.1425337 62.69661035a97.89667998 97.89667998 0 0 0 31.3764205 7.30991865 83.27684268 83.27684268 0 0 0 59.04165059-24.06650186 134.55873369 134.55873369 0 0 0 16.36297207-46.67101875z m481.94856211-69.2755374a293.2401999 293.2401999 0 0 1-51.7879626 7.30991865v7.30991865a25.07864414 25.07864414 0 0 0-17.48757481-13.83261503 52.91256533 52.91256533 0 0 0-51.78796172 21.14253369 88.61870654 88.61870654 0 0 0-24.06650185 48.86399531c-3.65495977 17.48757481-10.23388594 51.7879626 21.14253369 62.69660947 10.23388594 3.65495977 17.48757481 7.30991865 24.06650186 3.65495977 10.23388594 0 17.48757481-7.30991865 24.06650185-10.23388594 0 3.65495977 0 7.30991865-3.65495977 7.30991866h51.7879626c3.65495977-21.14253369 7.30991865-37.8991169 13.83261505-76.52922627 3.48626865-19.73678027 10.79618731-37.22435508 13.6639248-57.63589717z m-73.09918653 100.59572725a22.49205732 22.49205732 0 0 1-17.4875748 10.23388593s-10.23388594 0-10.23388682-13.83261503a43.35344122 43.35344122 0 0 1 3.65495977-21.14253458c3.65495977-21.14253369 10.23388594-41.55407578 24.06650185-41.55407578 10.23388594 0 13.83261503 10.23388594 13.83261505 24.06650098a24.17896143 24.17896143 0 0 1-3.65495977 13.83261592c0 7.30991865-3.65495977 13.83261503-3.65495889 21.14253369a7.81599023 7.81599023 0 0 0-6.57892705 7.30991865z m-280.70087783 61.8531583h-44.98411465a57.63589717 57.63589717 0 0 1 7.30991865-24.06650185l3.65495889-10.23388594a343.73486865 343.73486865 0 0 0 7.30991866-44.98411554c0-3.65495977 0-13.83261503-10.23388594-13.83261503-3.65495977 0-10.23388594 3.65495977-13.83261504 3.65495888-3.65495977 10.23388594-7.30991865 37.8991169-10.23388682 48.86399532-3.65495977 27.72146075-7.30991865 27.72146075-7.30991865 41.55407578h-48.86399443c3.65495977-13.83261503 7.30991865-31.3764205 10.23388593-48.86399443a710.52409599 710.52409599 0 0 0 13.83261504-80.18418516c21.14253369-3.65495977 27.72146075-3.65495977 48.86399531-7.30991865v3.48626865l-3.65495976 13.83261592c3.65495977-3.65495977 7.30991865-3.65495977 10.23388681-7.30991865a54.26208896 54.26208896 0 0 1 31.37641964-7.30991865 22.88566846 22.88566846 0 0 1 24.06650185 13.83261503 139.78813711 139.78813711 0 0 1-3.65495977 51.7879626l-3.65495888 7.30991865a409.69282763 409.69282763 0 0 0-10.23388594 59.77264307z" fill="#FFFFFF" p-id="6535"></path><path d="M1058.52603271 304.87710869h-76.36053515v7.30991865l-13.83261504 69.2755374-34.97514961 153.11468145h55.3866917c0-7.30991865 10.23388594-48.86399531 10.23388594-48.86399531l7.30991865-31.37641963 3.65495976-3.65495977h3.65495889a138.15746279 138.15746279 0 0 0 90.41807109-21.14253369 94.91648291 94.91648291 0 0 0 34.97514961-59.04165146v-21.1425337a46.95217031 46.95217031 0 0 0-7.30991865-24.06650185c-14.05753594-20.41154209-41.77899668-20.41154209-73.15541719-20.41154209z m21.14253458 73.0991874a67.47617286 67.47617286 0 0 1-24.06650187 34.97514961 59.82887286 59.82887286 0 0 1-34.9751496 7.30991865h-7.30991865v-3.65495976s13.83261503-69.2755374 13.83261591-65.62057764v-14.05753593l7.30991866 3.65495888 31.37641962 3.65495977c10.23388594 2.19297568 17.54380459 16.86904277 13.83261593 33.73808642z m-447.64817432 38.6301085c13.83261503-10.23388594 13.83261503-21.14253369 3.65495888-27.72146074a43.24098076 43.24098076 0 0 0-41.55407578 3.65495888c-13.83261503 7.30991865-13.83261503 21.14253369-3.65495976 27.72146162a38.23649737 38.23649737 0 0 0 41.55407666-3.82365z m784.46673457-73.09918652c-24.06650185 3.65495977-27.72146075 3.65495977-48.86399444 7.30991865a507.08343604 507.08343604 0 0 1-27.72146073 59.04165058v-3.76741933l-3.48626865-62.5841499-3.65495977-3.65495977a222.84005977 222.84005977 0 0 1-44.98411465 7.30991865v3.65495977a83.38930312 83.38930312 0 0 1 3.65495888 34.97514873c0 10.23388594 3.65495977 24.06650185 3.65495977 34.97514961 3.65495977 17.48757481 3.65495977 27.72146075 7.30991866 55.38669169-13.83261503 24.06650185-17.48757481 34.97514961-31.37642052 55.38669171l-13.83261503 17.4875748-3.65495977 3.65495888h-10.23388593l-10.23388594 31.37642052h27.72146074a39.36110097 39.36110097 0 0 0 34.97514961-17.48757481l17.48757392-31.37642051 3.65495977-3.65495888c9.50289433-28.45245234 99.86473565-188.08983106 99.86473565-188.08983106z" fill="#FFFFFF" p-id="6536"></path></svg>