<?xml version="1.0" standalone="no"?><!DOCTYPE svg PUBLIC "-//W3C//DTD SVG 1.1//EN" "http://www.w3.org/Graphics/SVG/1.1/DTD/svg11.dtd"><svg t="1540967398609" class="icon" style="" viewBox="0 0 1024 1024" version="1.1" xmlns="http://www.w3.org/2000/svg" p-id="6148" xmlns:xlink="http://www.w3.org/1999/xlink" width="200" height="200"><defs><style type="text/css"></style></defs><path d="M798.36363652 962H225.63636348a163.63636347 163.63636347 0 0 1-163.63636348-163.63636347V225.63636348a163.63636347 163.63636347 0 0 1 163.63636347-163.63636348h572.72727306a163.63636347 163.63636347 0 0 1 163.63636347 163.63636347v572.72727306a163.63636347 163.63636347 0 0 1-163.63636347 163.63636347zM336.09090869 590.25909131a24.54545479 24.54545479 0 1 0 0 49.09090869h151.36363652v117.40909131a24.54545479 24.54545479 0 0 0 49.09090958 0v-117.40909131h151.36363652a24.54545479 24.54545479 0 1 0 0-49.09090869h-151.36363652V467.98181826h151.36363652a24.54545479 24.54545479 0 1 0 0-49.09090957h-126.81818262l136.92272784-136.92272695a24.21818174 24.21818174 0 1 0-34.24090958-34.24090869L512 399.5 360.39090869 247.89090869a24.21818174 24.21818174 0 1 0-34.24090869 34.24090957l132.95454521 136.92272695H336.09090869a24.54545479 24.54545479 0 0 0 0 49.09090958h151.36363652v122.27727216z" fill="#1690FF" p-id="6149"></path></svg>