<?xml version="1.0" standalone="no"?><!DOCTYPE svg PUBLIC "-//W3C//DTD SVG 1.1//EN" "http://www.w3.org/Graphics/SVG/1.1/DTD/svg11.dtd"><svg t="1540967403419" class="icon" style="" viewBox="0 0 1024 1024" version="1.1" xmlns="http://www.w3.org/2000/svg" p-id="6407" xmlns:xlink="http://www.w3.org/1999/xlink" width="200" height="200"><defs><style type="text/css"></style></defs><path d="M780.46559532 933.87461685H243.53402156a153.40902155 153.40902155 0 0 1-153.40902156-153.40902155V243.53402156a153.40902155 153.40902155 0 0 1 153.40902154-153.40902156h536.93157378a153.40902155 153.40902155 0 0 1 153.40902153 153.40902154v436.67877833c-0.34517039 0-3.83522524-1.18891956-10.35510891-3.14488449-189.26838009-58.29542825-253.12488464-79.15905532-273.52828483-86.44598355a654.09771369 654.09771369 0 0 0 71.25849015-179.1050323h-175.99849968V351.84078975h215.76978807v-36.66475578h-215.76978807V215.65193118H462.48704684a16.5298222 16.5298222 0 0 0-16.72158334 13.61505075v85.90905204H243.07379382v36.6647558h202.15473816v59.71446168H279.73855045v32.98293977h335.1987106a582.68581431 582.68581431 0 0 1-48.20878427 117.31954916l-24.85226156-8.32243936-0.61363615-0.19176196a695.70991132 695.70991132 0 0 0-185.62491596-42.18748023c-13.34658499-1.26562418-26.30964688-1.91761305-38.54401611-1.91761303-151.45305578 0-179.18173691 98.7570574-184.09082519 141.25135611A130.12920181 130.12920181 0 0 0 166.82951077 753.6190169a207.67746258 207.67746258 0 0 0 155.71015604 60.32809699c107.38631442 0 189.30673196-43.87498023 274.44873944-146.65902401 95.15194519 45.56247939 279.62629348 126.56244231 332.51405301 149.22862509A152.83373731 152.83373731 0 0 1 780.46559532 933.87461685z m153.06385115-143.16896914L933.87461685 680.21279987V780.46559532c0 3.37499835 0 6.82670132-0.34517038 10.24005239zM309.57660492 756.68719678A145.16328598 145.16328598 0 0 1 189.84086393 712.31363775a86.48433545 86.48433545 0 0 1-19.48294556-68.72724178 107.38631442 107.38631442 0 0 1 113.13915271-76.47439692 520.01822928 520.01822928 0 0 1 239.35642547 62.85934616c-62.51417578 81.72865639-138.22152813 126.71585156-213.27689163 126.71585157z" fill="#08AAEC" p-id="6408"></path></svg>